<svg width="24" height="26" viewBox="0 0 24 26" fill="none" xmlns="http://www.w3.org/2000/svg">
<path d="M23.6752 13.8107C23.5024 13.3939 23.266 13.0063 22.9808 12.6483C22.6956 12.2907 22.362 11.9619 21.9908 11.6595L21.968 11.6411L21.99 11.6595C20.8748 10.7531 19.4072 10.0603 17.7072 9.57396H17.7068C16.0052 9.09032 14.0639 8.82031 12 8.82031C10.4272 8.82031 8.92639 8.97712 7.54798 9.26551C6.16958 9.55395 4.9136 9.97391 3.83039 10.5091L3.82958 10.5095C2.74758 11.0463 1.82758 11.6999 1.14477 12.4971L1.15716 12.4819L1.14436 12.4971C0.803572 12.8963 0.521989 13.3343 0.324806 13.8107C0.127165 14.2875 0.017173 14.8015 0.0175792 15.3307V19.4883C0.017173 20.0179 0.127165 20.5323 0.324806 21.0091C0.497564 21.4259 0.734001 21.8131 1.01919 22.1711C1.30478 22.5291 1.63796 22.8575 2.00922 23.1599L2.00998 23.1603C3.12519 24.0659 4.59241 24.7602 6.29236 25.2459L6.30161 25.2479C8.0012 25.7299 9.93917 25.9995 12 25.9999H12.0004C13.5728 25.9995 15.0736 25.8426 16.452 25.5543C17.8304 25.2658 19.0864 24.8455 20.1696 24.3107L20.1704 24.3099C21.2524 23.7731 22.172 23.119 22.8552 22.3227L22.8556 22.3219C23.1964 21.9235 23.4776 21.4859 23.6748 21.0091L23.6624 21.0383L23.6752 21.0091C23.8724 20.5323 23.9824 20.0179 23.9824 19.4883V15.3307C23.9824 14.8015 23.8724 14.2875 23.6752 13.8107ZM2.69883 21.6535C2.57284 21.5347 2.45518 21.414 2.35042 21.2919C2.102 21.0007 1.91563 20.7027 1.79122 20.4028C1.6668 20.1019 1.60444 19.7991 1.60444 19.4883V17.6035C1.84728 17.9031 2.13404 18.1859 2.45848 18.4507C2.53648 18.5135 2.61646 18.5755 2.69888 18.6371L2.69883 21.6535ZM4.99643 23.1019C4.83845 23.0331 4.6828 22.9627 4.53366 22.8883C4.18601 22.7163 3.86609 22.5328 3.57404 22.3412V19.2092C4.00965 19.4592 4.48567 19.6884 4.99643 19.8948V23.1019ZM7.8416 23.9943C7.12081 23.8419 6.4444 23.6511 5.82081 23.4283H5.8724V20.2143C6.07284 20.2807 6.2784 20.3435 6.48797 20.4035C6.9216 20.5267 7.37441 20.6347 7.8416 20.7287V23.9943ZM11.562 24.4083C10.5708 24.3883 9.61798 24.2979 8.71722 24.1523V20.8819C9.62321 21.0219 10.576 21.1039 11.562 21.1231V24.4083ZM15.3924 24.1327C14.4597 24.2883 13.47 24.3859 12.438 24.4059V21.1251C13.4636 21.1051 14.4544 21.0159 15.3924 20.867V24.1327ZM18.2376 23.4083C17.9288 23.5203 17.6072 23.6243 17.2724 23.7195C16.9492 23.8115 16.6124 23.8935 16.2676 23.9687V20.7071C16.9608 20.5639 17.62 20.3856 18.2376 20.1772V23.4083H18.2376ZM20.5356 22.2667C20.1212 22.5507 19.6444 22.8147 19.1128 23.0547V19.8491C19.3688 19.7431 19.6172 19.6318 19.8544 19.5147C20.0916 19.3967 20.3184 19.2731 20.5356 19.1451V22.2667ZM22.3956 19.4883C22.3956 19.7991 22.3332 20.1019 22.2084 20.4027C22.0484 20.7915 21.78 21.1783 21.4108 21.5491V18.5915H21.3588C21.722 18.3143 22.044 18.0187 22.3148 17.7023C22.3424 17.6699 22.3688 17.6371 22.3957 17.6043L22.3956 19.4883ZM22.2084 16.2443C21.9924 16.7692 21.5804 17.29 20.9884 17.7719C20.1024 18.4951 18.8172 19.1224 17.2724 19.5612C15.728 20.0011 13.9248 20.2551 12 20.2551C9.06761 20.2564 6.4152 19.6631 4.53366 18.73C3.59288 18.2648 2.84726 17.716 2.35047 17.1332C2.10205 16.8424 1.91568 16.5443 1.79127 16.2444C1.66685 15.9436 1.60449 15.6412 1.60449 15.3308C1.60449 15.0204 1.66685 14.718 1.79127 14.4172C2.00805 13.892 2.41933 13.3712 3.01169 12.89C3.89808 12.1664 5.1829 11.5388 6.72771 11.1C8.27207 10.6604 10.0757 10.4068 12.0001 10.4068C14.9325 10.4052 17.5845 10.9988 19.4661 11.9316C20.4073 12.3964 21.1533 12.946 21.6493 13.528C21.8981 13.8188 22.0845 14.1168 22.2085 14.4172C22.3333 14.718 22.3957 15.0203 22.3957 15.3307C22.3956 15.6411 22.3332 15.9435 22.2084 16.2443Z" fill="#007AFF"/>
<path d="M15.5684 4.368L18.4968 5.14521C18.5732 5.16075 18.6352 5.22321 18.6528 5.29999L19.4248 8.22839C19.4456 8.31441 19.5212 8.37479 19.6092 8.37479C19.698 8.37479 19.7728 8.31441 19.7928 8.22839L20.566 5.29999C20.5824 5.22321 20.6447 5.16075 20.7212 5.14521L23.65 4.368C23.7355 4.35195 23.7964 4.27558 23.7964 4.18762C23.7964 4.09881 23.7355 4.02401 23.65 4.00684L20.7212 3.23004C20.6447 3.21364 20.5823 3.15204 20.566 3.07521L19.7928 0.146809C19.7728 0.0615977 19.698 0 19.6092 0C19.5212 0 19.4455 0.0615977 19.4248 0.146809L18.6528 3.07521C18.6352 3.15199 18.5732 3.21364 18.4968 3.23004L15.5684 4.00684C15.482 4.02406 15.422 4.09886 15.422 4.18762C15.422 4.27558 15.482 4.352 15.5684 4.368Z" fill="#007AFF"/>
<path d="M19.1435 15.9332L17.8143 15.5807C17.7795 15.5728 17.7512 15.5456 17.7435 15.5104L17.3932 14.1812C17.3839 14.1424 17.3499 14.1147 17.3096 14.1147C17.27 14.1147 17.2355 14.1424 17.226 14.1812L16.8756 15.5104C16.8676 15.5456 16.8396 15.5728 16.8048 15.5807L15.476 15.9332C15.4368 15.9407 15.4092 15.9752 15.4092 16.0151C15.4092 16.0551 15.4368 16.0896 15.476 16.0976L16.8048 16.4496C16.8396 16.4568 16.8676 16.4856 16.8756 16.5208L17.226 17.8491C17.2356 17.8879 17.27 17.9156 17.3096 17.9156C17.3499 17.9156 17.384 17.8879 17.3932 17.8491L17.7435 16.5208C17.7512 16.4856 17.7795 16.4568 17.8143 16.4496L19.1435 16.0976C19.182 16.0896 19.21 16.0551 19.21 16.0151C19.21 15.9752 19.182 15.9407 19.1435 15.9332Z" fill="#007AFF"/>
<path d="M0.921625 7.11311L3.01402 7.66754C3.06927 7.67912 3.11284 7.72355 3.12604 7.7787L3.67722 9.87109C3.6924 9.93309 3.74643 9.9759 3.80925 9.9759C3.87242 9.9759 3.92605 9.93309 3.94087 9.87109L4.49246 7.7787C4.50404 7.72355 4.54923 7.67912 4.60403 7.66754L6.69682 7.11311C6.75802 7.10031 6.80164 7.04511 6.80164 6.9827C6.80164 6.92029 6.75802 6.86672 6.69682 6.85392L4.60403 6.29873C4.54923 6.28675 4.50404 6.24353 4.49246 6.18833L3.94082 4.09472C3.92605 4.03394 3.87242 3.99072 3.8092 3.99072C3.74638 3.99072 3.6924 4.03394 3.67717 4.09472L3.12599 6.18833C3.11279 6.24353 3.06921 6.28675 3.01396 6.29873L0.921574 6.85392C0.859215 6.86672 0.816406 6.92029 0.816406 6.9827C0.816406 7.04511 0.859215 7.10036 0.921625 7.11311Z" fill="#007AFF"/>
<path d="M12.4052 11.8588C11.2884 11.8948 10.7284 11.8916 9.61122 11.8468C9.54967 11.8444 9.50524 11.8788 9.50204 11.9348C9.35848 14.3979 9.28805 15.6292 9.14444 18.0944C9.14124 18.1508 9.18842 18.19 9.26246 18.1932C10.0312 18.2244 10.4161 18.2324 11.1852 18.2316C11.2597 18.232 11.3069 18.1932 11.3069 18.1372C11.3081 17.3484 11.3089 16.9544 11.3101 16.1664C11.3101 16.1288 11.334 16.1092 11.3804 16.1088C11.8464 16.1068 12.0784 16.1024 12.5436 16.0876C14.4636 16.026 15.3696 14.9936 15.2316 13.7868C15.0904 12.5608 14.11 11.8028 12.4052 11.8588ZM12.3872 14.7004C11.984 14.7123 11.7828 14.7147 11.3796 14.7176C11.3352 14.718 11.3124 14.6995 11.3124 14.6619C11.3133 14.1279 11.3137 13.8611 11.3141 13.3268C11.3144 13.29 11.3349 13.2708 11.3781 13.2699C11.7644 13.2683 11.958 13.2648 12.3441 13.2531C12.934 13.2355 13.2821 13.4956 13.3073 13.9343C13.3324 14.3732 13.0028 14.6816 12.3872 14.7004Z" fill="#007AFF"/>
</svg>
