<svg xmlns="http://www.w3.org/2000/svg" xmlns:xlink="http://www.w3.org/1999/xlink" version="1.1" width="256" height="256" viewBox="0 0 256 256" xml:space="preserve">

<defs>
</defs>
<g style="stroke: none; stroke-width: 0; stroke-dasharray: none; stroke-linecap: butt; stroke-linejoin: miter; stroke-miterlimit: 10; fill: none; fill-rule: nonzero; opacity: 1;" transform="translate(1.4065934065934016 1.4065934065934016) scale(2.81 2.81)" >
	<path d="M 44.982 89.997 c -3.887 0 -7.835 -0.537 -11.753 -1.667 C 10.722 81.838 -2.308 58.247 4.182 35.741 C 7.326 24.838 14.528 15.811 24.46 10.325 c 9.933 -5.487 21.407 -6.778 32.31 -3.632 c 1.592 0.459 2.511 2.122 2.052 3.714 s -2.121 2.51 -3.714 2.051 c -9.364 -2.699 -19.217 -1.592 -27.747 3.119 S 12.647 28.04 9.947 37.403 C 4.374 56.73 15.564 76.99 34.892 82.564 c 19.327 5.574 39.587 -5.618 45.161 -24.945 c 0.459 -1.592 2.12 -2.512 3.714 -2.052 c 1.592 0.459 2.511 2.122 2.052 3.714 C 80.457 77.871 63.428 89.997 44.982 89.997 z" style="stroke: none; stroke-width: 1; stroke-dasharray: none; stroke-linecap: butt; stroke-linejoin: miter; stroke-miterlimit: 10; fill: rgb(0,0,0); fill-rule: nonzero; opacity: 1;" transform=" matrix(1 0 0 1 0 0) " stroke-linecap="round" />
	<path d="M 64.576 16.217 c -0.506 0 -1.02 -0.128 -1.49 -0.398 l -0.398 -0.224 c -1.45 -0.802 -1.975 -2.628 -1.173 -4.078 c 0.803 -1.449 2.628 -1.976 4.077 -1.172 l 0.48 0.27 c 1.438 0.825 1.934 2.658 1.108 4.095 C 66.627 15.676 65.616 16.217 64.576 16.217 z" style="stroke: none; stroke-width: 1; stroke-dasharray: none; stroke-linecap: butt; stroke-linejoin: miter; stroke-miterlimit: 10; fill: rgb(0,0,0); fill-rule: nonzero; opacity: 1;" transform=" matrix(1 0 0 1 0 0) " stroke-linecap="round" />
	<path d="M 83.568 42.044 c -1.38 0 -2.621 -0.957 -2.928 -2.36 c -0.065 -0.299 -0.136 -0.597 -0.209 -0.893 c -0.398 -1.608 0.582 -3.235 2.191 -3.634 c 1.612 -0.398 3.235 0.583 3.634 2.191 c 0.087 0.35 0.169 0.701 0.246 1.054 c 0.354 1.619 -0.672 3.218 -2.29 3.571 C 83.995 42.022 83.78 42.044 83.568 42.044 z M 79.751 31.767 c -1.068 0 -2.102 -0.571 -2.644 -1.577 c -0.146 -0.27 -0.295 -0.538 -0.447 -0.804 c -0.825 -1.437 -0.329 -3.271 1.107 -4.096 c 1.436 -0.825 3.271 -0.33 4.096 1.107 c 0.18 0.313 0.355 0.627 0.525 0.944 c 0.786 1.459 0.241 3.279 -1.217 4.065 C 80.719 31.651 80.232 31.767 79.751 31.767 z M 73.257 22.927 c -0.782 0 -1.564 -0.304 -2.151 -0.91 c -0.214 -0.219 -0.429 -0.435 -0.648 -0.649 c -1.188 -1.155 -1.213 -3.055 -0.057 -4.242 c 1.155 -1.188 3.056 -1.213 4.242 -0.057 c 0.259 0.252 0.515 0.508 0.766 0.767 c 1.155 1.189 1.127 3.088 -0.061 4.242 C 74.764 22.646 74.01 22.927 73.257 22.927 z" style="stroke: none; stroke-width: 1; stroke-dasharray: none; stroke-linecap: butt; stroke-linejoin: miter; stroke-miterlimit: 10; fill: rgb(0,0,0); fill-rule: nonzero; opacity: 1;" transform=" matrix(1 0 0 1 0 0) " stroke-linecap="round" />
	<path d="M 84.444 52.477 c -0.054 0 -0.107 -0.001 -0.161 -0.004 c -1.655 -0.088 -2.925 -1.5 -2.838 -3.154 l 0.021 -0.446 c 0.058 -1.657 1.442 -2.969 3.104 -2.893 c 1.656 0.059 2.951 1.448 2.893 3.104 l -0.024 0.552 C 87.352 51.236 86.028 52.477 84.444 52.477 z" style="stroke: none; stroke-width: 1; stroke-dasharray: none; stroke-linecap: butt; stroke-linejoin: miter; stroke-miterlimit: 10; fill: rgb(0,0,0); fill-rule: nonzero; opacity: 1;" transform=" matrix(1 0 0 1 0 0) " stroke-linecap="round" />
	<path d="M 60.316 63.306 c -0.637 0 -1.278 -0.201 -1.822 -0.618 L 41.921 49.992 c -0.741 -0.568 -1.176 -1.448 -1.176 -2.382 V 22.874 c 0 -1.657 1.343 -3 3 -3 s 3 1.343 3 3 v 23.255 l 15.397 11.795 c 1.316 1.008 1.565 2.891 0.558 4.206 C 62.109 62.901 61.218 63.306 60.316 63.306 z" style="stroke: none; stroke-width: 1; stroke-dasharray: none; stroke-linecap: butt; stroke-linejoin: miter; stroke-miterlimit: 10; fill: rgb(0,0,0); fill-rule: nonzero; opacity: 1;" transform=" matrix(1 0 0 1 0 0) " stroke-linecap="round" />
	<path d="M 49.362 17.181 c -0.56 0 -1.119 -0.156 -1.612 -0.47 c -1.023 -0.652 -1.553 -1.857 -1.342 -3.051 l 1.972 -11.184 c 0.21 -1.195 1.12 -2.146 2.305 -2.408 c 1.19 -0.265 2.412 0.215 3.107 1.208 l 4.606 6.578 c 0.951 1.358 0.621 3.228 -0.736 4.178 l -6.578 4.606 C 50.567 17 49.964 17.181 49.362 17.181 z" style="stroke: none; stroke-width: 1; stroke-dasharray: none; stroke-linecap: butt; stroke-linejoin: miter; stroke-miterlimit: 10; fill: rgb(0,0,0); fill-rule: nonzero; opacity: 1;" transform=" matrix(1 0 0 1 0 0) " stroke-linecap="round" />
</g>
</svg>